<svg width="336" height="388" viewBox="0 0 336 388" fill="none" xmlns="http://www.w3.org/2000/svg">
<path d="M216.712 329.135C188.698 314.86 188.197 313.456 164.246 348.569C186.457 312.216 184.874 312.379 160.414 292.717C187.147 310.898 189.153 308.386 211.662 275.17C190.629 309.357 189.189 312.22 216.712 329.135Z" fill="white" fill-opacity="0.38"/>
<path d="M297.947 366.097C261.825 354.443 222.662 334.739 187.22 311.813C101.928 256.639 24.9577 173.831 57.5016 122.407L60.2386 124.159C28.8768 173.711 104.995 254.751 188.985 309.081C276.199 365.5 380.619 398.133 411.457 351.355L414.177 353.134C394.513 382.958 349.297 382.664 297.947 366.097Z" fill="white" fill-opacity="0.38"/>
<path d="M414.169 353.128L411.449 351.349C437.361 311.24 379.66 227.652 282.83 165.014C186.001 102.374 86.1415 84.0405 60.2302 124.153L57.4933 122.401C84.378 80.7836 186.258 98.6675 284.594 162.282C382.93 225.893 441.054 311.51 414.169 353.128Z" fill="white" fill-opacity="0.38"/>
<path d="M314.487 286.772C282.138 276.335 246.703 259.494 211.711 236.859C113.376 173.247 55.2468 87.6339 82.1334 46.0164C95.3001 25.6345 126.319 18.6752 169.473 26.4244C212.146 34.0818 261.781 55.21 309.229 85.9037C356.677 116.597 396.301 153.213 420.804 189.005C445.581 225.202 451.975 256.361 438.808 276.743C421.489 303.553 373.049 305.665 314.487 286.772ZM213.477 234.124C310.306 296.763 410.166 315.09 436.081 274.978C448.49 255.768 442.113 225.89 418.124 190.846C393.861 155.399 354.561 119.1 307.465 88.6355C260.369 58.1709 211.164 37.2163 168.898 29.6251C127.115 22.1232 97.2715 28.5718 84.8614 47.7813C58.9496 87.8922 116.646 171.484 213.477 234.124Z" fill="white" fill-opacity="0.38"/>
<path d="M204.189 345.937C195.552 344.81 193.942 345.635 189.809 353.313C190.941 344.667 190.118 343.057 182.451 338.924C191.088 340.051 192.697 339.226 196.831 331.549C195.698 340.194 196.521 341.804 204.189 345.937Z" fill="white" fill-opacity="0.38"/>
</svg>
